<?xml version="1.0" encoding="UTF-8"?>
<svg width="53px" height="53px" viewBox="0 0 53 53" version="1.1" xmlns="http://www.w3.org/2000/svg" xmlns:xlink="http://www.w3.org/1999/xlink">
    <!-- Generator: Sketch 44.1 (41455) - http://www.bohemiancoding.com/sketch -->
    <title>Fill 2801</title>
    <desc>Created with Sketch.</desc>
    <defs></defs>
    <g id="Page-1" stroke="none" stroke-width="1" fill="none" fill-rule="evenodd">
        <g id="Desktop" transform="translate(-186.000000, -2455.000000)" fill="#0A0A08">
            <path d="M237.233333,2506.23333 L227.516667,2506.23333 L227.516667,2485.03333 C229.9529,2485.03333 231.933333,2483.44863 231.933333,2481.5 C231.933333,2479.55137 229.9529,2477.96667 227.516667,2477.96667 L227.516667,2476.2 C229.9529,2476.2 231.933333,2474.6153 231.933333,2472.66667 C231.933333,2470.71627 229.9529,2469.13333 227.516667,2469.13333 L227.516667,2467.36667 C229.9529,2467.36667 231.933333,2465.78197 231.933333,2463.83333 C231.933333,2461.8847 229.9529,2460.3 227.516667,2460.3 L227.516667,2456.76667 L237.233333,2456.76667 L237.233333,2506.23333 Z M187.766667,2456.76667 L197.483333,2456.76667 L197.483333,2460.3 C195.0471,2460.3 193.066667,2461.8847 193.066667,2463.83333 C193.066667,2465.78197 195.0471,2467.36667 197.483333,2467.36667 L197.483333,2469.13333 C195.0471,2469.13333 193.066667,2470.71627 193.066667,2472.66667 C193.066667,2474.6153 195.0471,2476.2 197.483333,2476.2 L197.483333,2495.63333 C195.0471,2495.63333 193.066667,2497.21627 193.066667,2499.16667 C193.066667,2501.1153 195.0471,2502.7 197.483333,2502.7 L197.483333,2506.23333 L187.766667,2506.23333 L187.766667,2456.76667 Z M211.616667,2500.93333 C210.180367,2500.93333 208.966667,2500.1242 208.966667,2499.16667 C208.966667,2498.20913 210.180367,2497.4 211.616667,2497.4 L213.383333,2497.4 C214.8214,2497.4 216.033333,2498.20913 216.033333,2499.16667 C216.033333,2500.1242 214.8214,2500.93333 213.383333,2500.93333 L211.616667,2500.93333 Z M211.616667,2492.1 C210.180367,2492.1 208.966667,2491.29087 208.966667,2490.33333 C208.966667,2489.3758 210.180367,2488.56667 211.616667,2488.56667 L213.383333,2488.56667 C214.8214,2488.56667 216.033333,2489.3758 216.033333,2490.33333 C216.033333,2491.29087 214.8214,2492.1 213.383333,2492.1 L211.616667,2492.1 Z M211.616667,2465.6 C210.180367,2465.6 208.966667,2464.79087 208.966667,2463.83333 C208.966667,2462.8758 210.180367,2462.06667 211.616667,2462.06667 L213.383333,2462.06667 C214.8214,2462.06667 216.033333,2462.8758 216.033333,2463.83333 C216.033333,2464.79087 214.8214,2465.6 213.383333,2465.6 L211.616667,2465.6 Z M199.25,2462.06667 C200.688067,2462.06667 201.9,2462.8758 201.9,2463.83333 C201.9,2464.79087 200.688067,2465.6 199.25,2465.6 L197.483333,2465.6 C196.047033,2465.6 194.833333,2464.79087 194.833333,2463.83333 C194.833333,2462.8758 196.047033,2462.06667 197.483333,2462.06667 L199.25,2462.06667 Z M199.25,2470.9 C200.688067,2470.9 201.9,2471.70913 201.9,2472.66667 C201.9,2473.6242 200.688067,2474.43333 199.25,2474.43333 L197.483333,2474.43333 C196.047033,2474.43333 194.833333,2473.6242 194.833333,2472.66667 C194.833333,2471.70913 196.047033,2470.9 197.483333,2470.9 L199.25,2470.9 Z M203.666667,2499.16667 C203.666667,2497.21627 201.686233,2495.63333 199.25,2495.63333 L199.25,2476.2 C201.686233,2476.2 203.666667,2474.6153 203.666667,2472.66667 C203.666667,2470.71627 201.686233,2469.13333 199.25,2469.13333 L199.25,2467.36667 C201.686233,2467.36667 203.666667,2465.78197 203.666667,2463.83333 C203.666667,2461.8847 201.686233,2460.3 199.25,2460.3 L199.25,2456.76667 L211.648467,2456.76667 L211.623733,2460.3 L211.616667,2460.3 C209.180433,2460.3 207.2,2461.8847 207.2,2463.83333 C207.2,2465.78197 209.180433,2467.36667 211.616667,2467.36667 L211.616667,2486.8 C209.180433,2486.8 207.2,2488.3847 207.2,2490.33333 C207.2,2492.28197 209.180433,2493.86667 211.616667,2493.86667 L211.616667,2495.63333 C209.180433,2495.63333 207.2,2497.21627 207.2,2499.16667 C207.2,2501.1153 209.180433,2502.7 211.616667,2502.7 L211.616667,2506.23333 L199.25,2506.23333 L199.25,2502.7 C201.686233,2502.7 203.666667,2501.1153 203.666667,2499.16667 Z M199.25,2497.4 C200.688067,2497.4 201.9,2498.20913 201.9,2499.16667 C201.9,2500.1242 200.688067,2500.93333 199.25,2500.93333 L197.483333,2500.93333 C196.047033,2500.93333 194.833333,2500.1242 194.833333,2499.16667 C194.833333,2498.20913 196.047033,2497.4 197.483333,2497.4 L199.25,2497.4 Z M225.75,2483.26667 C224.3137,2483.26667 223.1,2482.45753 223.1,2481.5 C223.1,2480.54247 224.3137,2479.73333 225.75,2479.73333 L227.516667,2479.73333 C228.954733,2479.73333 230.166667,2480.54247 230.166667,2481.5 C230.166667,2482.45753 228.954733,2483.26667 227.516667,2483.26667 L225.75,2483.26667 Z M225.75,2474.43333 C224.3137,2474.43333 223.1,2473.6242 223.1,2472.66667 C223.1,2471.70913 224.3137,2470.9 225.75,2470.9 L227.516667,2470.9 C228.954733,2470.9 230.166667,2471.70913 230.166667,2472.66667 C230.166667,2473.6242 228.954733,2474.43333 227.516667,2474.43333 L225.75,2474.43333 Z M221.333333,2463.83333 C221.333333,2465.78197 223.313767,2467.36667 225.75,2467.36667 L225.75,2469.13333 C223.313767,2469.13333 221.333333,2470.71627 221.333333,2472.66667 C221.333333,2474.6153 223.313767,2476.2 225.75,2476.2 L225.75,2477.96667 C223.313767,2477.96667 221.333333,2479.55137 221.333333,2481.5 C221.333333,2483.44863 223.313767,2485.03333 225.75,2485.03333 L225.75,2506.23333 L213.383333,2506.23333 L213.383333,2502.7 C215.819567,2502.7 217.8,2501.1153 217.8,2499.16667 C217.8,2497.21627 215.819567,2495.63333 213.383333,2495.63333 L213.383333,2493.86667 C215.819567,2493.86667 217.8,2492.28197 217.8,2490.33333 C217.8,2488.3847 215.819567,2486.8 213.383333,2486.8 L213.383333,2467.36667 C215.819567,2467.36667 217.8,2465.78197 217.8,2463.83333 C217.8,2461.88647 215.8231,2460.30353 213.3904,2460.3 L213.415133,2456.76667 L225.75,2456.76667 L225.75,2460.3 C223.313767,2460.3 221.333333,2461.8847 221.333333,2463.83333 Z M225.75,2465.6 C224.3137,2465.6 223.1,2464.79087 223.1,2463.83333 C223.1,2462.8758 224.3137,2462.06667 225.75,2462.06667 L227.516667,2462.06667 C228.954733,2462.06667 230.166667,2462.8758 230.166667,2463.83333 C230.166667,2464.79087 228.954733,2465.6 227.516667,2465.6 L225.75,2465.6 Z M238.116667,2455 L186.883333,2455 C186.395733,2455 186,2455.39573 186,2455.88333 L186,2507.11667 C186,2507.60427 186.395733,2508 186.883333,2508 L238.116667,2508 C238.606033,2508 239,2507.60427 239,2507.11667 L239,2455.88333 C239,2455.39573 238.606033,2455 238.116667,2455 L238.116667,2455 Z" id="Fill-2801"></path>
        </g>
    </g>
</svg>