<?xml version="1.0" encoding="UTF-8"?>
<svg width="56px" height="56px" viewBox="0 0 56 56" version="1.1" xmlns="http://www.w3.org/2000/svg" xmlns:xlink="http://www.w3.org/1999/xlink">
    <!-- Generator: Sketch 44.1 (41455) - http://www.bohemiancoding.com/sketch -->
    <title>Fill 2852</title>
    <desc>Created with Sketch.</desc>
    <defs></defs>
    <g id="Page-1" stroke="none" stroke-width="1" fill="none" fill-rule="evenodd">
        <g id="Desktop" transform="translate(-782.000000, -2453.000000)" fill="#0A0A08">
            <path d="M819.333333,2507.13333 C809.066667,2507.13333 802.533333,2504.92133 802.533333,2503.4 L802.533333,2499.5528 C806.117333,2501.79093 814.088,2502.46667 819.333333,2502.46667 C824.56,2502.46667 832.530667,2501.79093 836.133333,2499.5528 L836.133333,2503.4 C836.133333,2504.92133 829.581333,2507.13333 819.333333,2507.13333 Z M783.866667,2491.26667 L783.866667,2487.41947 C787.450667,2489.6576 795.421333,2490.33333 800.666667,2490.33333 L800.666667,2495 C790.4,2495 783.866667,2492.788 783.866667,2491.26667 Z M800.666667,2454.86667 C811.530667,2454.86667 817.466667,2457.33253 817.466667,2458.6 C817.466667,2459.86747 811.530667,2462.33333 800.666667,2462.33333 C789.784,2462.33333 783.866667,2459.86747 783.866667,2458.6 C783.866667,2457.33253 789.784,2454.86667 800.666667,2454.86667 Z M800.666667,2477.26667 C805.893333,2477.26667 813.864,2476.59093 817.466667,2474.3528 L817.466667,2478.2 C817.466667,2479.72133 810.914667,2481.93333 800.666667,2481.93333 C790.4,2481.93333 783.866667,2479.72133 783.866667,2478.2 L783.866667,2474.3528 C787.450667,2476.59093 795.421333,2477.26667 800.666667,2477.26667 Z M800.666667,2470.73333 C805.893333,2470.73333 813.864,2470.0576 817.466667,2467.81947 L817.466667,2471.66667 C817.466667,2473.188 810.914667,2475.4 800.666667,2475.4 C790.4,2475.4 783.866667,2473.188 783.866667,2471.66667 L783.866667,2467.81947 C787.450667,2470.0576 795.421333,2470.73333 800.666667,2470.73333 Z M817.466667,2465.13333 C817.466667,2466.65467 810.914667,2468.86667 800.666667,2468.86667 C790.4,2468.86667 783.866667,2466.65467 783.866667,2465.13333 L783.866667,2461.22267 C787.096,2463.24987 794.058667,2464.2 800.666667,2464.2 C807.256,2464.2 814.218667,2463.24987 817.466667,2461.22267 L817.466667,2465.13333 Z M801.544,2488.45547 C801.264,2488.46107 800.965333,2488.46667 800.666667,2488.46667 C790.4,2488.46667 783.866667,2486.25467 783.866667,2484.73333 L783.866667,2480.88613 C787.450667,2483.12427 795.421333,2483.8 800.666667,2483.8 C805.893333,2483.8 813.864,2483.12427 817.466667,2480.88613 L817.466667,2484.73333 C817.466667,2484.7408 817.448,2484.752 817.448,2484.76133 C810.672,2484.94427 803.914667,2486.12773 801.544,2488.45547 Z M836.133333,2490.33333 C836.133333,2491.6008 830.197333,2494.06667 819.333333,2494.06667 C808.450667,2494.06667 802.533333,2491.6008 802.533333,2490.33333 C802.533333,2489.06587 808.450667,2486.6 819.333333,2486.6 C830.197333,2486.6 836.133333,2489.06587 836.133333,2490.33333 Z M836.133333,2496.86667 C836.133333,2498.388 829.581333,2500.6 819.333333,2500.6 C809.066667,2500.6 802.533333,2498.388 802.533333,2496.86667 L802.533333,2492.956 C805.762667,2494.9832 812.725333,2495.93333 819.333333,2495.93333 C825.922667,2495.93333 832.885333,2494.9832 836.133333,2492.956 L836.133333,2496.86667 Z M819.333333,2484.73333 L819.333333,2458.6 C819.333333,2454.7528 809.645333,2453 800.666667,2453 C791.669333,2453 782,2454.7528 782,2458.6 L782,2491.26667 C782,2495.68693 793.722667,2496.86667 800.666667,2496.86667 L800.666667,2503.4 C800.666667,2507.82027 812.389333,2509 819.333333,2509 C826.258667,2509 838,2507.82027 838,2503.4 L838,2490.33333 C838,2486.48613 828.312,2484.73333 819.333333,2484.73333 L819.333333,2484.73333 Z" id="Fill-2852"></path>
        </g>
    </g>
</svg>