<?xml version="1.0" encoding="UTF-8"?>
<svg width="59px" height="58px" viewBox="0 0 59 58" version="1.1" xmlns="http://www.w3.org/2000/svg" xmlns:xlink="http://www.w3.org/1999/xlink">
    <!-- Generator: Sketch 44.1 (41455) - http://www.bohemiancoding.com/sketch -->
    <title>Fill 3158</title>
    <desc>Created with Sketch.</desc>
    <defs></defs>
    <g id="Page-1" stroke="none" stroke-width="1" fill="none" fill-rule="evenodd">
        <g id="Desktop" transform="translate(-477.000000, -2193.000000)" fill="#262C30">
            <path d="M511.892471,2248.42515 L505.213643,2248.42515 L506.271287,2242.15763 C506.349631,2241.64839 506.036255,2241.17833 505.527019,2241.04123 L500.591345,2239.80731 C500.101695,2239.68979 499.572873,2239.98358 499.416185,2240.49282 L497.144208,2248.42515 L490.437959,2248.42515 L493.183917,2234.42116 L513.71397,2238.04457 L511.892471,2248.42515 Z M503.235456,2248.42515 L499.181153,2248.42515 L501.041823,2241.94218 L504.175584,2242.72562 L503.235456,2248.42515 Z M495.08376,2224.72608 L515.437538,2228.30836 L514.066518,2236.10555 L493.559969,2232.50173 L495.08376,2224.72608 Z M496.98752,2215.03101 L517.141521,2218.57608 L515.7705,2226.39089 L495.46177,2222.80665 L496.98752,2215.03101 Z M498.887363,2205.33594 L518.86509,2208.86142 L517.494069,2216.65665 L497.359654,2213.11158 L498.887363,2205.33594 Z M505.056955,2198.89214 L515.28085,2200.69405 L514.340722,2206.06062 L504.116826,2204.25871 L505.056955,2198.89214 Z M534.788513,2248.42515 L513.870658,2248.42515 L515.652984,2238.37753 L517.121935,2238.63215 C517.180693,2238.65173 517.239451,2238.65173 517.278623,2238.65173 C517.748687,2238.65173 518.159993,2238.31877 518.257923,2237.84871 C518.336267,2237.31989 517.983719,2236.81065 517.454897,2236.71272 L515.985947,2236.4581 L517.356967,2228.64328 L518.825918,2228.91749 L519.002192,2228.91749 C519.472256,2228.91749 519.883562,2228.58453 519.961906,2228.11446 C520.059836,2227.58564 519.707288,2227.0764 519.178466,2226.97847 L517.709515,2226.72386 L519.080536,2218.92862 L520.549486,2219.18324 C520.608244,2219.18324 520.667002,2219.20283 520.706174,2219.20283 C521.176238,2219.20283 521.587544,2218.86987 521.685475,2218.38022 C521.763819,2217.85139 521.41127,2217.34216 520.882448,2217.24423 L519.413498,2216.98961 L520.784518,2209.19438 L522.253469,2209.449 C522.312227,2209.46858 522.370985,2209.46858 522.429743,2209.46858 C522.899807,2209.46858 523.311113,2209.13562 523.389457,2208.66556 C523.487387,2208.13673 523.134839,2207.6275 522.606017,2207.52957 L516.260151,2206.41317 L517.219865,2201.0466 L518.688815,2201.30122 C518.747574,2201.30122 518.806332,2201.3208 518.845504,2201.3208 C519.315568,2201.3208 519.726874,2200.98784 519.824804,2200.49819 C519.903148,2199.96937 519.5506,2199.46013 519.021778,2199.38179 L511.481165,2198.04994 L512.166675,2194.13274 C512.264605,2193.60392 511.892471,2193.09468 511.363649,2193.01634 C510.834827,2192.91841 510.325591,2193.27096 510.227661,2193.79978 L509.54215,2197.69739 L502.001538,2196.36554 C501.472716,2196.2872 500.963479,2196.62016 500.865549,2197.16857 C500.767619,2197.69739 501.120167,2198.20663 501.64899,2198.30456 L503.11794,2198.55918 L502.177812,2203.92574 L495.849573,2202.80934 C495.324668,2202.71141 494.809556,2203.06396 494.715543,2203.59278 C494.62153,2204.14119 494.977996,2204.65043 495.510735,2204.72877 L496.948348,2204.98339 L495.432391,2212.75903 L494.129922,2212.54359 C493.610892,2212.44566 493.091863,2212.7982 492.995892,2213.32703 C492.901879,2213.85585 493.258344,2214.36509 493.791084,2214.46302 L495.05634,2214.69805 L493.532548,2222.45411 L492.418105,2222.25825 C491.895158,2222.16032 491.378088,2222.53245 491.284075,2223.06127 C491.190062,2223.59009 491.546527,2224.09933 492.077308,2224.19726 L493.156497,2224.37353 L491.632706,2232.14918 L490.704329,2231.99249 C490.181383,2231.89456 489.664312,2232.24711 489.570299,2232.79552 C489.476286,2233.32434 489.832752,2233.83358 490.363532,2233.91192 L491.254696,2234.06861 L488.442145,2248.42515 L477.9793,2248.42515 C477.438727,2248.42515 477,2248.85604 477,2249.40445 C477,2249.95286 477.438727,2250.38375 477.9793,2250.38375 L534.788513,2250.38375 C535.317335,2250.38375 535.767813,2249.95286 535.767813,2249.40445 C535.767813,2248.85604 535.317335,2248.42515 534.788513,2248.42515 L534.788513,2248.42515 Z" id="Fill-3158"></path>
        </g>
    </g>
</svg>