<?xml version="1.0" encoding="UTF-8"?>
<svg width="65px" height="55px" viewBox="0 0 65 55" version="1.1" xmlns="http://www.w3.org/2000/svg" xmlns:xlink="http://www.w3.org/1999/xlink">
    <!-- Generator: Sketch 44.1 (41455) - http://www.bohemiancoding.com/sketch -->
    <title>Fill 1000</title>
    <desc>Created with Sketch.</desc>
    <defs></defs>
    <g id="Page-1" stroke="none" stroke-width="1" fill="none" fill-rule="evenodd">
        <g id="Desktop" transform="translate(-480.000000, -2454.000000)" fill="#1B1A18">
            <path d="M543.916667,2482.17936 L528.36,2482.17936 L522.150333,2468.72436 C521.955333,2468.3127 521.5155,2468.03103 521.041,2468.1177 C520.575167,2468.16103 520.198167,2468.5077 520.105,2468.9627 L513.750167,2500.7477 L507.0725,2454.94436 C506.998833,2454.44603 506.589333,2454.05603 506.0845,2454.0127 C505.584,2453.92603 505.113833,2454.29436 504.964333,2454.77103 L496.533833,2482.17936 L481.083333,2482.17936 C480.485333,2482.17936 480,2482.6777 480,2483.2627 C480,2483.86936 480.485333,2484.34603 481.083333,2484.34603 L497.333333,2484.34603 C497.81,2484.34603 498.230333,2484.0427 498.369,2483.5877 L505.620833,2460.01436 L512.513,2507.2477 C512.588833,2507.7677 513.028667,2508.17936 513.555167,2508.17936 L513.583333,2508.17936 C514.099,2508.17936 514.545333,2507.81103 514.645,2507.3127 L521.578333,2472.6677 L526.683,2483.7177 C526.860667,2484.1077 527.244167,2484.34603 527.666667,2484.34603 L543.916667,2484.34603 C544.516833,2484.34603 545,2483.86936 545,2483.2627 C545,2482.6777 544.516833,2482.17936 543.916667,2482.17936" id="Fill-1000"></path>
        </g>
    </g>
</svg>