<?xml version="1.0" encoding="UTF-8"?>
<svg width="59px" height="58px" viewBox="0 0 59 58" version="1.1" xmlns="http://www.w3.org/2000/svg" xmlns:xlink="http://www.w3.org/1999/xlink">
    <!-- Generator: Sketch 44.1 (41455) - http://www.bohemiancoding.com/sketch -->
    <title>Group 2</title>
    <desc>Created with Sketch.</desc>
    <defs></defs>
    <g id="Page-1" stroke="none" stroke-width="1" fill="none" fill-rule="evenodd">
        <g id="Desktop" transform="translate(-186.000000, -2184.000000)" fill="#262C30">
            <g id="Group-2" transform="translate(186.000000, 2184.000000)">
                <path d="M47.2,55.4231882 L53.1,55.4231882 L53.1,20.9170099 L47.2,20.9170099 L47.2,55.4231882 Z M33.4333333,55.4231882 L39.3333333,55.4231882 L39.3333333,38.170099 L33.4333333,38.170099 L33.4333333,55.4231882 Z M19.6666667,55.4231882 L25.5666667,55.4231882 L25.5666667,32.4190693 L19.6666667,32.4190693 L19.6666667,55.4231882 Z M5.9,55.4231882 L11.8,55.4231882 L11.8,45.8381387 L5.9,45.8381387 L5.9,55.4231882 Z M58.0166667,55.4231882 L55.0666667,55.4231882 L55.0666667,19.958505 C55.0666667,19.4294102 54.6143333,19 54.0833333,19 L46.2166667,19 C45.666,19 45.2333333,19.4294102 45.2333333,19.958505 L45.2333333,55.4231882 L41.3,55.4231882 L41.3,37.2115941 C41.3,36.6824994 40.8476667,36.2530891 40.3166667,36.2530891 L32.45,36.2530891 C31.8993333,36.2530891 31.4666667,36.6824994 31.4666667,37.2115941 L31.4666667,55.4231882 L27.5333333,55.4231882 L27.5333333,31.4605644 C27.5333333,30.9314696 27.081,30.5020594 26.55,30.5020594 L18.6833333,30.5020594 C18.1326667,30.5020594 17.7,30.9314696 17.7,31.4605644 L17.7,55.4231882 L13.7666667,55.4231882 L13.7666667,44.8796337 C13.7666667,44.350539 13.3143333,43.9211288 12.7833333,43.9211288 L4.91666667,43.9211288 C4.366,43.9211288 3.93333333,44.350539 3.93333333,44.8796337 L3.93333333,55.4231882 L0.983333333,55.4231882 C0.432666667,55.4231882 0,55.8525984 0,56.3816931 C0,56.9107879 0.432666667,57.3401981 0.983333333,57.3401981 L58.0166667,57.3401981 C58.5476667,57.3401981 59,56.9107879 59,56.3816931 C59,55.8525984 58.5476667,55.4231882 58.0166667,55.4231882 L58.0166667,55.4231882 Z" id="Fill-2874"></path>
                <path d="M6.93333333,25.8796337 C8.015,25.8796337 8.9,26.7403712 8.9,27.7966436 C8.9,28.8529161 8.015,29.7136535 6.93333333,29.7136535 C5.832,29.7136535 4.96666667,28.8529161 4.96666667,27.7966436 C4.96666667,26.7403712 5.832,25.8796337 6.93333333,25.8796337 Z M21.6833333,13.4190693 C22.765,13.4190693 23.65,14.2798068 23.65,15.3360792 C23.65,16.3923517 22.765,17.2530891 21.6833333,17.2530891 C20.582,17.2530891 19.7166667,16.3923517 19.7166667,15.3360792 C19.7166667,14.2798068 20.582,13.4190693 21.6833333,13.4190693 Z M36.4333333,19.170099 C37.515,19.170099 38.4,20.0308365 38.4,21.0871089 C38.4,22.1433814 37.515,23.0041188 36.4333333,23.0041188 C35.332,23.0041188 34.4666667,22.1433814 34.4666667,21.0871089 C34.4666667,20.0308365 35.332,19.170099 36.4333333,19.170099 Z M51.1833333,1.9170099 C52.265,1.9170099 53.15,2.77774735 53.15,3.83401981 C53.15,4.89029227 52.265,5.75102971 51.1833333,5.75102971 C50.082,5.75102971 49.2166667,4.89029227 49.2166667,3.83401981 C49.2166667,2.77774735 50.082,1.9170099 51.1833333,1.9170099 Z M6.93333333,31.6306634 C9.09666667,31.6306634 10.8666667,29.9111055 10.8666667,27.7966436 C10.8666667,27.1851174 10.6896667,26.6138485 10.434,26.1000898 L19.4413333,18.4876435 C20.0706667,18.9170537 20.8376667,19.170099 21.6833333,19.170099 C22.9616667,19.170099 24.122,18.5470708 24.83,17.6000679 L32.5393333,20.6059395 C32.5196667,20.7650513 32.5,20.9222461 32.5,21.0871089 C32.5,23.2015709 34.2503333,24.9211288 36.4333333,24.9211288 C38.5966667,24.9211288 40.3666667,23.2015709 40.3666667,21.0871089 C40.3666667,20.2532096 40.0716667,19.4864057 39.6193333,18.8576264 L49.492,7.29038866 C50.0033333,7.52618088 50.5736667,7.66803962 51.1833333,7.66803962 C53.3466667,7.66803962 55.1166667,5.94848173 55.1166667,3.83401981 C55.1166667,1.71955788 53.3466667,0 51.1833333,0 C49.0003333,0 47.25,1.71955788 47.25,3.83401981 C47.25,4.66791912 47.5253333,5.43472308 47.9973333,6.06350233 L38.105,17.6326571 C37.5936667,17.3949479 37.0233333,17.2530891 36.4333333,17.2530891 C35.1353333,17.2530891 33.975,17.8761174 33.267,18.8231202 L25.5576667,15.8172487 C25.5773333,15.6581369 25.6166667,15.5009421 25.6166667,15.3360792 C25.6166667,13.2216173 23.8466667,11.5020594 21.6833333,11.5020594 C19.5003333,11.5020594 17.75,13.2216173 17.75,15.3360792 C17.75,15.9476054 17.9073333,16.5188743 18.163,17.032633 L9.15566667,24.6450793 C8.52633333,24.2156691 7.75933333,23.9626238 6.93333333,23.9626238 C4.75033333,23.9626238 3,25.6802647 3,27.7966436 C3,29.9111055 4.75033333,31.6306634 6.93333333,31.6306634 L6.93333333,31.6306634 Z" id="Fill-2875"></path>
            </g>
        </g>
    </g>
</svg>