<?xml version="1.0" encoding="UTF-8"?>
<svg width="59px" height="58px" viewBox="0 0 59 58" version="1.1" xmlns="http://www.w3.org/2000/svg" xmlns:xlink="http://www.w3.org/1999/xlink">
    <!-- Generator: Sketch 44.1 (41455) - http://www.bohemiancoding.com/sketch -->
    <title>Group</title>
    <desc>Created with Sketch.</desc>
    <defs></defs>
    <g id="Page-1" stroke="none" stroke-width="1" fill="none" fill-rule="evenodd">
        <g id="Desktop" transform="translate(-787.000000, -2193.000000)" fill="#262C30">
            <g id="Group" transform="translate(787.000000, 2193.000000)">
                <path d="M57.9833333,17 C57.4326667,17 57,17.4183607 57,17.9508197 L57,56.9344262 C57,57.4668852 57.4326667,57.8852459 57.9833333,57.8852459 C58.5143333,57.8852459 58.9666667,57.4668852 58.9666667,56.9344262 L58.9666667,17.9508197 C58.9666667,17.4183607 58.5143333,17 57.9833333,17" id="Fill-4295"></path>
                <path d="M34.7411369,54.7534426 C30.5324703,54.7534426 26.5008036,52.7567213 24.4161369,49.695082 C24.2391369,49.4288525 23.9244703,49.2577049 23.6098036,49.2577049 C23.2754703,49.2577049 22.9608036,49.4288525 22.7838036,49.695082 C20.7188036,52.7567213 16.6674703,54.7534426 12.4784703,54.7534426 C9.52847027,54.7534426 6.9128036,53.7836066 4.88713693,52.015082 C8.3878036,52.6996721 12.7931369,50.4367213 12.7931369,45.4544262 C12.7931369,41.8413115 15.9988036,39.9016393 19.0274703,39.9016393 C20.6008036,39.9016393 21.9971369,40.415082 22.8821369,41.3468852 C23.0591369,41.5370492 23.3344703,41.6511475 23.6098036,41.6511475 C23.8654703,41.6511475 24.1408036,41.5370492 24.3178036,41.3468852 C25.2028036,40.4340984 26.5991369,39.9016393 28.1724703,39.9016393 C31.2011369,39.9016393 34.4264703,41.8413115 34.4264703,45.4544262 C34.4264703,50.4367213 38.8121369,52.6996721 42.3128036,52.015082 C40.2871369,53.7836066 37.6714703,54.7534426 34.7411369,54.7534426 Z M46.6984703,47.4701639 C46.2461369,47.2419672 45.6954703,47.3560656 45.4004703,47.7744262 C44.2991369,49.3337705 42.6668036,50.2465574 40.9361369,50.2465574 C38.6744703,50.2465574 36.3931369,48.5921311 36.3931369,45.4544262 C36.3931369,40.6052459 32.1451369,38 28.1724703,38 C26.4024703,38 24.8094703,38.4944262 23.6098036,39.4072131 C22.3904703,38.4944262 20.7974703,38 19.0274703,38 C15.0548036,38 10.8264703,40.6052459 10.8264703,45.4544262 C10.8264703,48.5921311 8.52547027,50.2465574 6.24413693,50.2465574 C4.53313693,50.2465574 2.9008036,49.3337705 1.79947027,47.7744262 C1.50447027,47.3560656 0.953803599,47.2419672 0.501470265,47.4701639 C0.0688035988,47.717377 -0.127863068,48.2498361 0.0884702655,48.6872131 C2.40913693,53.7455738 6.93247027,56.655082 12.4784703,56.655082 C16.8051369,56.655082 21.0334703,54.7914754 23.6098036,51.8059016 C26.1664703,54.7914754 30.3948036,56.655082 34.7411369,56.655082 C40.2674703,56.655082 44.7908036,53.7455738 47.1114703,48.6872131 C47.3278036,48.2498361 47.1311369,47.717377 46.6984703,47.4701639 L46.6984703,47.4701639 Z" id="Fill-4296"></path>
                <path d="M41.7666667,24.7213115 C35.257,24.7213115 29.9666667,19.6059016 29.9666667,13.3114754 C29.9666667,7.01704918 35.257,1.90163934 41.7666667,1.90163934 C48.2566667,1.90163934 53.5666667,7.01704918 53.5666667,13.3114754 C53.5666667,19.6059016 48.2566667,24.7213115 41.7666667,24.7213115 Z M41.7666667,0 C34.1753333,0 28,5.97114754 28,13.3114754 C28,20.6518033 34.1753333,26.6229508 41.7666667,26.6229508 C49.3383333,26.6229508 55.5333333,20.6518033 55.5333333,13.3114754 C55.5333333,5.97114754 49.3383333,0 41.7666667,0 L41.7666667,0 Z" id="Fill-4297"></path>
                <path d="M47.85,13.9508197 C47.85,18.1534426 44.31,21.557377 39.9833333,21.557377 C39.4326667,21.557377 39,21.9757377 39,22.5081967 C39,23.0406557 39.4326667,23.4590164 39.9833333,23.4590164 C45.3916667,23.4590164 49.8166667,19.1993443 49.8166667,13.9508197 C49.8166667,13.4183607 49.3643333,13 48.8333333,13 C48.2826667,13 47.85,13.4183607 47.85,13.9508197" id="Fill-4298"></path>
            </g>
        </g>
    </g>
</svg>